<svg width="32" height="32" viewBox="0 0 32 32" fill="none" xmlns="http://www.w3.org/2000/svg">
  <defs>
    <linearGradient id="gradient" x1="0%" y1="0%" x2="100%" y2="100%">
      <stop offset="0%" style="stop-color:rgb(107, 38, 217);stop-opacity:1" />
      <stop offset="100%" style="stop-color:rgb(13, 162, 231);stop-opacity:1" />
    </linearGradient>
  </defs>
  
  <!-- Background circle with gradient -->
  <circle cx="16" cy="16" r="16" fill="url(#gradient)"/>
  
  <!-- Zap/lightning bolt icon - using the exact Lucide design -->
  <path d="M8 18a1 1 0 0 1-.78-1.63l9.9-10.2a.5.5 0 0 1 .86.46l-1.92 6.02A1 1 0 0 0 17 18h7a1 1 0 0 1 .78 1.63l-9.9 10.2a.5.5 0 0 1-.86-.46l1.92-6.02A1 1 0 0 0 15 18z" 
        fill="white" 
        stroke="white" 
        stroke-width="1" 
        stroke-linecap="round" 
        stroke-linejoin="round"/>
</svg>
